<svg id="Capa_1" enable-background="new 0 0 504.296 504.296" height="512" viewBox="0 0 504.296 504.296" width="512" xmlns="http://www.w3.org/2000/svg"><g><g><path d="m213.189 379.343h-154.6c-14.72 6.63-28 16.64-38.59 29.61l-.11.13c-10.67 13.07-8.45 32.38 4.92 42.68v.01c30.264 23.33 70.604 28.495 105.626 13.903l1.79-6.159 20.471-8.609 4.982 1.892 39.501-18.928 17.6-9.29z" fill="#ade194"/><g><path d="m255.429 377.693-10.72 35.49-57.94-9.96-82.49-9.12c-22.45-2.48-43.23-11.18-60.39-24.54-17.15-13.36-30.66-31.4-38.56-52.56-6.65-17.82 2.72-37.62 20.73-43.77l.17-.06c5.48-1.87 11.03-3.31 16.61-4.36l34.92-2.34z" fill="#97da7b"/></g><g><path d="m156.589 450.563 1.089 2.238-22.189 10.632c-1.67.8-3.358 1.558-5.058 2.258-7.69-16.84-11.962-35.558-11.962-55.278 0-10.7 1.26-21.1 3.65-31.07h31.13c-3.11 9.81-4.78 20.24-4.78 31.07 0 14.23 2.89 27.8 8.12 40.15z" fill="#fedf30"/></g><g id="XMLID_669_"><g><path d="m157.375 316.319 26.31 16.47c-14.02 12.32-24.69 28.35-30.44 46.56-2.01 6.33-3.41 12.92-4.16 19.71l-29.82-3.29c.61-5.58 1.57-11.06 2.85-16.42 5.79-24.26 18.22-45.94 35.26-63.03z" fill="#fee97d"/></g></g><g id="XMLID_667_"><g><path d="m129.309 152.823 126.12 188.1-17.66 55.58-43.37-23.65-106.4-62.08c-43.49-25.38-69.96-71.87-69.96-121.78 0-2.87.08-5.75.26-8.64 1.36-22.38 20.94-39.22 43.28-37.23l.21.02c10.19.91 20.11 2.92 29.64 5.9z" fill="#ade194"/></g></g><g><path d="m215.922 282.013 17.89 26.68c-18.99 3.34-36.21 11.88-50.13 24.09-7.45 6.55-13.96 14.15-19.28 22.57l-25.96-15.14c5.39-8.68 11.75-16.7 18.93-23.9 16-16.05 36.08-28.05 58.55-34.3z" fill="#fedf30"/></g><g><path d="m238.929 106.013 20.51 221.55-46.25 16.06-93.09-124.86c-34.35-46.07-39.83-107.55-14.17-158.97 7.54-15.11 22.74-23.79 38.48-23.79 6.84 0 13.77 1.63 20.23 5.09l.21.11c9.19 4.91 17.73 10.7 25.56 17.21z" fill="#97da7b"/></g><path d="m484.412 409.095-.11-.13c-10.59-12.97-23.87-22.98-38.59-29.61 0 0-24.93-22.5-25.59-23.7s-148.29 2.31-148.29 2.31l-23.85 37.79 59.14 38.13 38.047 18.218 8.543-2.602 13.543 6.22 2.162 8c36.013 16.973 78.521 12.388 110.075-11.937v-.01c13.37-10.299 15.59-29.609 4.92-42.679z" fill="#ade194"/><g><g id="XMLID_686_"><g><path d="m385.229 395.743c.28 4.15.34 8.35.18 12.59-.76 20.09-6.472 38.889-15.992 55.389-.2-.09-.408-.189-.608-.289l-23.64-11.33c5.68-11.88 9.11-25.14 9.74-39.32.21-4.62.08-9.18-.34-13.65-1.49-15.49-6.64-29.98-14.65-42.67 12.07-.24 24.34-.47 35.55-.66 5.45 12.47 8.83 25.92 9.76 39.94z" fill="#fedf30"/></g></g></g><path d="m478.239 273.233-.17-.06c-5.48-1.87-11.03-3.31-16.61-4.36l-62.32-10.38-60.01 49.8.83 19.334-25.7 1.306-58.83 48.82 14.44 28.95 47.66-3.42 37.04-4.09 15.936-16.612 14.724 13.222 14.79-1.64c44.89-4.96 83.16-34.78 98.95-77.1 1.45-3.89 2.14-7.88 2.14-11.8 0-14.02-8.801-27.16-22.87-31.97z" fill="#97da7b"/><g id="XMLID_684_"><g><path d="m385.229 395.743-30.66 3.39c-1.52-15.82-6.86-30.61-15.16-43.49-6.65-10.33-15.18-19.41-25.15-26.77l24.87-20.64c10.97 8.95 20.36 19.56 27.77 31.37 10.48 16.7 16.98 35.81 18.33 56.14z" fill="#fee97d"/></g></g><g><path d="m485.999 180.353c3.25 53.14-23.71 103.58-69.7 130.42l-104.1 60.74-30.8 20.3-33.42-36.46 83.87-174.13 81.02-32.18c9.53-2.98 19.45-4.99 29.64-5.9l.21-.02c1.2-.11 2.4-.16 3.58-.16 20.82 0 38.41 16.22 39.7 37.39z" fill="#ade194"/></g><g><path d="m398.369 59.793c25.66 51.42 20.18 112.9-14.17 158.97l-96.819 129.994-21.852-8.925 11.09-245.7 37.27-35.72c7.83-6.51 16.37-12.3 25.56-17.21l.21-.11c6.46-3.46 13.39-5.09 20.23-5.09 15.741.001 30.941 8.681 38.481 23.791z" fill="#97da7b"/></g><g><path d="m366.899 339.603-27.49 16.04c-8.38-13.02-19.77-24.07-33.24-32.21-10.89-6.59-23.16-11.26-36.3-13.52l13.89-28.85c14.92 3.49 28.82 9.34 41.26 17.08 17.12 10.63 31.46 24.85 41.88 41.46z" fill="#fedf30"/></g><g><path d="m268.267 312.39 49.235-143.762c18.579-54.248 5.097-114.334-34.878-155.444l-.164-.169c-16.874-17.353-44.743-17.353-61.617 0-40.06 41.198-53.507 101.445-34.766 155.767l21.751 63.047 29.937 84.484z" fill="#ade194"/></g><g id="XMLID_680_"><g><path d="m325.056 298.166-18.838 25.297c-11.71-7.08-25.06-11.98-39.32-14.03l1.41-31.09c20.811 2.48 40.108 9.463 56.748 19.823z" fill="#fee97d"/></g></g><path d="m254.049 276.394v31.259c5.11.371 10.18 1.031 15.111 2.13l10.166-29.684c-8.078-1.912-16.801-3.301-25.277-3.705z" fill="#fedf30"/><path d="m258.508 275.652c-10.931.097-22.632 1.362-33.691 4.166l10.511 29.634c7.762-1.77 15.484-2.61 23.181-2.619v-31.181z" fill="#fedf30"/><g><path d="m232.465 504.296h-9.565c-4.142 0-7.5-3.357-7.5-7.5s3.358-7.5 7.5-7.5h2.066v-71.092c0-4.143 3.358-7.5 7.5-7.5s7.5 3.357 7.5 7.5v78.592c-.001 4.142-3.358 7.5-7.501 7.5z" fill="#fedba6"/></g><g><path d="m281.398 504.296h-9.566c-4.142 0-7.5-3.357-7.5-7.5v-82.173c0-4.143 3.358-7.5 7.5-7.5s7.5 3.357 7.5 7.5v74.673h2.066c4.142 0 7.5 3.357 7.5 7.5s-3.358 7.5-7.5 7.5z" fill="#fedba6"/></g><path d="m184.584 261.963c-2.213.549-4.273-1.326-3.935-3.581 1.872-12.481 9.42-23.39 20.439-29.542l8.63-4.818 19.575-9.062 4.526 34.799z" fill="#fedba6"/><g id="XMLID_664_"><g><path d="m316.919 398.893c3.58 27.33-17.73 51.56-45.29 51.56h-39.16c-27.99 0-49.69-24.99-45.15-52.61 4.92-29.99 19.99-53.24 44.41-70.27 2.4-1.67 3.83-4.39 3.83-7.3v-55.09c-15.61-1.23-27.89-14.28-27.89-30.2 0-17.02 14.03-30.76 31.15-30.29 16.5.45 29.45 14.41 29.45 30.92v83.44c0 3.02 1.54 5.81 4.06 7.46 25.29 16.53 40.41 40.47 44.59 72.38z" fill="#80d261"/></g></g><path d="m209.535 407.331c4.92-29.99 19.99-66.24 44.41-83.27 2.4-1.67 3.83-4.39 3.83-7.3v-40.961c0-7.353-4.344-13.884-10.943-17.128-10.039-4.935-16.947-15.261-16.947-27.201 0-11.065 5.945-20.744 14.799-26.033-1.888-.436-3.855-.69-5.865-.745-17.12-.47-31.15 13.27-31.15 30.29 0 15.92 12.28 28.97 27.89 30.2v55.09c0 2.91-1.43 5.63-3.83 7.3-24.42 17.03-39.49 40.28-44.41 70.27-4.194 25.517 14.034 48.792 38.901 52.189-12.353-9.803-19.469-25.762-16.685-42.701z" fill="#68ca44"/><circle cx="252.149" cy="74.867" fill="#fedf30" r="31.15"/><circle cx="149.547" cy="111.813" fill="#fee45a" r="27.294"/><circle cx="77.756" cy="206.7" fill="#fedf30" r="27.294"/><circle cx="57.462" cy="313.668" fill="#fee45a" r="16.887"/><circle cx="59.611" cy="426.597" fill="#fedf30" r="13.418"/><circle cx="354.75" cy="111.813" fill="#fee45a" r="27.294"/><circle cx="426.541" cy="206.7" fill="#fedf30" r="27.294"/><circle cx="446.835" cy="313.668" fill="#fee45a" r="16.887"/><circle cx="444.686" cy="426.597" fill="#fedf30" r="13.418"/><circle cx="251.649" cy="152.819" fill="#fedf30" r="13.884"/><g><path d="m157.88 186.908c-3.087 0-5.979-1.921-7.069-4.997l-1.042-2.939c-1.383-3.904.66-8.19 4.564-9.574 3.905-1.381 8.19.66 9.574 4.564l1.042 2.939c1.383 3.904-.66 8.19-4.564 9.574-.828.293-1.674.433-2.505.433z" fill="#fee45a"/></g><g><path d="m172.49 220.88c-3.087 0-5.979-1.921-7.069-4.997l-1.042-2.939c-1.383-3.904.66-8.19 4.564-9.574 3.904-1.381 8.191.66 9.574 4.564l1.042 2.939c1.383 3.904-.66 8.19-4.564 9.574-.828.294-1.674.433-2.505.433z" fill="#fee45a"/></g><g><path d="m114.458 273.972c-2.071 0-4.132-.853-5.614-2.523l-3.913-4.412c-2.749-3.1-2.464-7.84.635-10.588 3.099-2.751 7.839-2.464 10.587.635l3.913 4.412c2.749 3.1 2.464 7.84-.635 10.588-1.427 1.266-3.204 1.888-4.973 1.888z" fill="#fedf30"/></g><g><path d="m137.466 301.361c-2.061 0-4.113-.845-5.595-2.502l-3.935-4.402c-2.76-3.089-2.494-7.83.594-10.59 3.089-2.761 7.83-2.493 10.59.594l3.935 4.402c2.76 3.089 2.494 7.83-.594 10.59-1.43 1.279-3.216 1.908-4.995 1.908z" fill="#fedf30"/></g><g><path d="m99.621 360.229c-1.149 0-2.316-.266-3.409-.824l-4.651-2.379c-3.688-1.887-5.148-6.405-3.262-10.093s6.405-5.146 10.092-3.263l4.651 2.379c3.688 1.887 5.148 6.405 3.262 10.093-1.326 2.595-3.956 4.087-6.683 4.087z" fill="#fee97d"/></g><g><path d="m345.417 186.908c-.832 0-1.676-.139-2.505-.433-3.904-1.384-5.948-5.67-4.564-9.574l1.042-2.939c1.383-3.904 5.669-5.948 9.574-4.564 3.904 1.384 5.948 5.67 4.564 9.574l-1.042 2.939c-1.089 3.076-3.982 4.997-7.069 4.997z" fill="#fee45a"/></g><g><path d="m330.807 220.88c-.832 0-1.676-.139-2.505-.433-3.904-1.384-5.948-5.67-4.564-9.574l1.042-2.939c1.383-3.904 5.669-5.95 9.574-4.564 3.904 1.384 5.948 5.67 4.564 9.574l-1.042 2.939c-1.09 3.077-3.982 4.997-7.069 4.997z" fill="#fee45a"/></g><g><path d="m388.839 273.972c-1.769 0-3.545-.622-4.973-1.889-3.099-2.748-3.384-7.488-.635-10.588l3.913-4.412c2.748-3.099 7.488-3.385 10.587-.635 3.099 2.748 3.384 7.488.635 10.588l-3.913 4.412c-1.482 1.672-3.543 2.524-5.614 2.524z" fill="#fedf30"/></g><g><path d="m365.831 301.361c-1.779 0-3.564-.629-4.996-1.908-3.088-2.76-3.354-7.501-.594-10.59l3.935-4.402c2.761-3.089 7.501-3.354 10.59-.594 3.088 2.76 3.354 7.501.594 10.59l-3.935 4.402c-1.481 1.657-3.534 2.502-5.594 2.502z" fill="#fedf30"/></g><g><path d="m403.676 360.229c-2.727 0-5.356-1.492-6.683-4.087-1.886-3.688-.426-8.206 3.262-10.093l4.651-2.379c3.687-1.884 8.207-.426 10.092 3.263 1.886 3.688.426 8.206-3.262 10.093l-4.651 2.379c-1.093.559-2.26.824-3.409.824z" fill="#fee45a"/></g></g><g id="XMLID_678_"><g><path d="m224.818 279.816 10.518 29.635c-13.21 2.07-26.669 6.126-38.013 13.15l-17.995-24.156c14.134-8.954 28.81-15.499 45.49-18.629z" fill="#fee97d"/></g></g></g></svg>